<svg width="30" height="30" viewBox="0 0 30 30" fill="none" xmlns="http://www.w3.org/2000/svg">
<path d="M22.793 2.34375H18.3735C17.8896 0.979614 16.5864 0 15.0586 0C13.5308 0 12.2276 0.979614 11.7437 2.34375H7.26562C5.327 2.34375 3.75 3.92075 3.75 5.85938V26.4844C3.75 28.423 5.327 30 7.26562 30H22.7966C24.7332 29.9979 26.3086 28.4209 26.3086 26.4844V5.85938C26.3086 3.92075 24.7316 2.34375 22.793 2.34375ZM13.8867 4.6875V3.51562C13.8867 2.86949 14.4125 2.34375 15.0586 2.34375C15.7047 2.34375 16.2305 2.86949 16.2305 3.51562V4.6875H18.5742V6.97266H11.543V4.6875H13.8867ZM23.9648 26.4844C23.9648 27.1298 23.4396 27.6556 22.7955 27.6562H7.26562C6.61949 27.6562 6.09375 27.1305 6.09375 26.4844V5.85938C6.09375 5.21324 6.61949 4.6875 7.26562 4.6875H9.19922V9.31641H20.918V4.6875H22.793C23.4391 4.6875 23.9648 5.21324 23.9648 5.85938V26.4844ZM19.5238 13.4789L21.2572 15.0563L13.7519 23.3034L8.79456 18.5083L10.4242 16.8237L13.6448 19.9388L19.5238 13.4789Z" fill="black"/>
</svg>
