<svg width="30" height="30" viewBox="0 0 30 30" fill="none" xmlns="http://www.w3.org/2000/svg">
<path d="M17.8364 12.2513C17.6713 11.8693 17.2956 11.6225 16.8794 11.6225C16.8779 11.6225 13.0308 11.6291 13.0099 11.6291C12.6409 11.6291 12.3136 11.9035 12.1633 12.2513L10.1548 16.8959C10.0443 17.1513 10.0399 17.4345 10.1424 17.6933C10.2449 17.952 10.4421 18.1554 10.6975 18.2659C10.8293 18.3228 10.9682 18.3516 11.1107 18.3516C11.5269 18.3516 11.9024 18.1049 12.0675 17.723L12.4331 16.8775V25.7397C12.4331 26.3724 12.9479 26.8872 13.5807 26.8872C14.2135 26.8872 14.7283 26.3724 14.7283 25.7397V19.8311H15.2149V25.7397C15.2149 26.3724 15.7297 26.8872 16.3626 26.8872C16.9953 26.8872 17.51 26.3724 17.51 25.7397V16.7469L17.9321 17.723C18.0973 18.1048 18.4729 18.3516 18.8888 18.3516C19.0313 18.3516 19.1703 18.3227 19.302 18.2658C19.5575 18.1553 19.7546 17.952 19.8572 17.6932C19.9596 17.4345 19.9553 17.1513 19.8448 16.8958L17.8364 12.2513Z" fill="black"/>
<path d="M14.8693 11.2405C16.3171 11.2405 17.495 10.0624 17.495 8.61432C17.495 7.1661 16.317 5.98798 14.8693 5.98798C13.421 5.98798 12.2429 7.16617 12.2429 8.61432C12.2428 10.0624 13.421 11.2405 14.8693 11.2405Z" fill="black"/>
<path d="M25.7654 5.92119L21.0445 1.23396C20.3241 0.518941 19.0647 0 18.0499 0H5.46825C4.10044 0 2.98755 1.11289 2.98755 2.4807V27.5192C2.98755 28.8871 4.10044 30 5.46825 30H24.5315C25.8994 30 27.0123 28.8871 27.0123 27.5192V8.91587C27.0123 7.8976 26.4877 6.63802 25.7654 5.92119ZM5.46765 27.5192L5.46825 2.4801H18.0499C18.0916 2.4801 18.1376 2.48408 18.1863 2.49099V6.98162C18.1863 8.34951 19.2991 9.46239 20.667 9.46239H24.5322L24.5318 27.5199L5.46765 27.5192Z" fill="black"/>
</svg>
