<svg width="30" height="30" viewBox="0 0 30 30" fill="none" xmlns="http://www.w3.org/2000/svg">
<path d="M25.8598 17.7825V6.78767V6.78699V0.678733C25.8598 0.303937 25.5559 0 25.1811 0H7.53405C5.66278 0 4.14038 1.5224 4.14038 3.39367V26.6063C4.14038 28.4776 5.66278 30 7.53405 30H25.1811C25.5559 30 25.8598 29.6961 25.8598 29.3213C25.8598 28.9465 25.5559 28.6425 25.1811 28.6425H24.7984V24.5701H25.1811C25.5559 24.5701 25.8598 24.2662 25.8598 23.8914V17.7831V17.7825ZM24.5024 23.2127H20.7112L24.5024 19.4215V23.2127ZM24.5024 5.14867L20.7112 1.35747H24.5024V5.14867ZM5.49785 3.39367C5.49785 2.27091 6.41129 1.35747 7.53405 1.35747V17.5038C7.53405 17.8786 7.83798 18.1825 8.21278 18.1825C8.58758 18.1825 8.89151 17.8786 8.89151 17.5038V1.35747H18.7913L24.5024 7.06853V17.5017L18.7913 23.2127H8.89151V19.819C8.89151 19.4442 8.58758 19.1403 8.21278 19.1403C7.83798 19.1403 7.53405 19.4442 7.53405 19.819V23.2127C6.77074 23.2127 6.0654 23.466 5.49785 23.893V3.39367ZM23.441 28.6425H7.53405C6.41129 28.6425 5.49785 27.7291 5.49785 26.6063C5.49785 25.4836 6.41129 24.5701 7.53405 24.5701H23.441V28.6425V28.6425Z" fill="black"/>
</svg>
