<svg width="30" height="30" viewBox="0 0 30 30" fill="none" xmlns="http://www.w3.org/2000/svg">
<g clip-path="url(#clip0_4754_126)">
<path d="M29.0019 6.87259C28.403 6.24521 27.576 5.87449 26.635 5.87449H21.9011V5.81745C21.9011 5.10452 21.616 4.42011 21.1312 3.96384C20.6464 3.47905 19.9905 3.19388 19.2776 3.19388H10.7224C9.98099 3.19388 9.3251 3.47905 8.8403 3.96384C8.35551 4.44863 8.07034 5.10452 8.07034 5.81745V5.87449H3.36502C2.42395 5.87449 1.59696 6.24521 0.998099 6.87259C0.39924 7.47144 0 8.32696 0 9.23951V23.441C0 24.3821 0.370722 25.2091 0.998099 25.8079C1.59696 26.4068 2.45247 26.806 3.36502 26.806H26.635C27.576 26.806 28.403 26.4353 29.0019 25.8079C29.6008 25.2091 30 24.3536 30 23.441V9.23951C30 8.29844 29.6293 7.47144 29.0019 6.87259ZM28.5171 23.441H28.4886C28.4886 23.9543 28.289 24.4106 27.9468 24.7528C27.6046 25.095 27.1483 25.2946 26.635 25.2946H3.36502C2.85171 25.2946 2.39544 25.095 2.05323 24.7528C1.71103 24.4106 1.51141 23.9543 1.51141 23.441V9.23951C1.51141 8.7262 1.71103 8.26992 2.05323 7.92772C2.39544 7.58551 2.85171 7.38589 3.36502 7.38589H8.86882C9.29658 7.38589 9.63878 7.04369 9.63878 6.61593V5.78893C9.63878 5.47525 9.75285 5.19008 9.95247 4.99046C10.1521 4.79084 10.4373 4.67677 10.751 4.67677H19.2776C19.5913 4.67677 19.8764 4.79084 20.076 4.99046C20.2757 5.19008 20.3897 5.47525 20.3897 5.78893V6.61593C20.3897 7.04369 20.7319 7.38589 21.1597 7.38589H26.6635C27.1768 7.38589 27.6331 7.58551 27.9753 7.92772C28.3175 8.26992 28.5171 8.7262 28.5171 9.23951V23.441Z" fill="black"/>
<path d="M15.0001 9.32504C13.0609 9.32504 11.2929 10.1235 10.0381 11.3783C8.75483 12.6615 7.98486 14.4011 7.98486 16.3403C7.98486 18.2794 8.78334 20.0475 10.0381 21.3022C11.3214 22.5855 13.0609 23.3555 15.0001 23.3555C16.9392 23.3555 18.7073 22.557 19.9621 21.3022C21.2453 20.019 22.0153 18.2794 22.0153 16.3403C22.0153 14.4011 21.2168 12.633 19.9621 11.3783C18.7073 10.1235 16.9392 9.32504 15.0001 9.32504ZM18.8784 20.2471C17.8803 21.2167 16.5115 21.8441 15.0001 21.8441C13.4887 21.8441 12.1198 21.2167 11.1217 20.2471C10.1236 19.249 9.52479 17.8802 9.52479 16.3688C9.52479 14.8574 10.1522 13.4885 11.1217 12.4904C12.1198 11.4923 13.4887 10.8935 15.0001 10.8935C16.5115 10.8935 17.8803 11.5209 18.8784 12.4904C19.8765 13.4885 20.4754 14.8574 20.4754 16.3688C20.5039 17.8802 19.8765 19.249 18.8784 20.2471Z" fill="black"/>
<path d="M25.152 12.0912C25.9237 12.0912 26.5493 11.4656 26.5493 10.6939C26.5493 9.92215 25.9237 9.29654 25.152 9.29654C24.3802 9.29654 23.7546 9.92215 23.7546 10.6939C23.7546 11.4656 24.3802 12.0912 25.152 12.0912Z" fill="black"/>
</g>
<defs>
<clipPath id="clip0_4754_126">
<rect width="30" height="30" fill="white"/>
</clipPath>
</defs>
</svg>
