<svg width="24" height="30" viewBox="0 0 24 30" fill="none" xmlns="http://www.w3.org/2000/svg">
<path d="M21.7764 0H21.7743C20.9855 0 20.3066 0.588789 20.195 1.36963L17.8716 17.6341C17.7608 18.4091 18.2501 19.1368 19.0096 19.3267L19.7885 19.5214L19.3697 27.8977C19.342 28.4508 19.537 28.9764 19.9187 29.3776C20.3004 29.7789 20.8156 29.9999 21.3694 29.9999C22.4734 29.9999 23.3715 29.1018 23.3715 27.9978V1.59524C23.3715 0.715592 22.6559 0 21.7764 0ZM22.3996 27.9977C22.3996 28.5658 21.9374 29.0279 21.3694 29.0279C21.0844 29.0279 20.8193 28.9142 20.6229 28.7078C20.4264 28.5014 20.3261 28.2309 20.3404 27.9463L20.7791 19.1711C20.7907 18.9393 20.6367 18.7316 20.4116 18.6754L19.2453 18.3838C18.9705 18.3151 18.7936 18.0519 18.8336 17.7716L21.1572 1.50706C21.2007 1.20201 21.4661 0.97192 21.7742 0.97192H21.7763C22.12 0.97192 22.3996 1.25151 22.3996 1.59524V27.9977Z" fill="black"/>
<path d="M15.5955 0.461662C15.5821 0.193606 15.3535 -0.012311 15.0859 0.000583152C14.8179 0.0139956 14.6114 0.242138 14.6249 0.510193L15.0399 8.81201H13.5227V0.48596C13.5227 0.217581 13.3051 0 13.0367 0C12.7684 0 12.5508 0.217581 12.5508 0.48596V8.81208H11.0336L11.4486 0.510258C11.462 0.242202 11.2555 0.0140604 10.9875 0.000647947C10.7195 -0.0129589 10.4913 0.193671 10.4779 0.461727L9.98893 10.241C9.9623 10.7736 10.2214 11.2882 10.6651 11.584L11.2523 11.9754C11.4114 12.0815 11.5029 12.2589 11.4973 12.45L11.0391 27.9461C11.024 28.4902 11.2246 29.0047 11.6041 29.3949C11.9836 29.7851 12.4923 30 13.0367 30C13.581 30 14.0898 29.7851 14.4693 29.3949C14.8487 29.0047 15.0495 28.4902 15.0343 27.9452L14.5761 12.45C14.5705 12.2589 14.6621 12.0815 14.8211 11.9754L15.4083 11.584C15.8519 11.2882 16.111 10.7736 16.0844 10.241L15.5955 0.461662ZM14.8693 10.7752L14.2821 11.1666C13.8423 11.4598 13.5891 11.9503 13.6047 12.4786L14.0629 27.973C14.0707 28.2525 13.9676 28.5168 13.7727 28.7172C13.5777 28.9176 13.3164 29.028 13.0368 29.028C12.7572 29.028 12.4958 28.9176 12.3009 28.7172C12.106 28.5168 12.0029 28.2525 12.0107 27.9739L12.4689 12.4786C12.4845 11.9503 12.2313 11.4598 11.7915 11.1666L11.2043 10.7752C11.0439 10.6682 10.9502 10.4821 10.9598 10.2895L10.9851 9.78393H15.0886L15.1139 10.2895C15.1235 10.4821 15.0298 10.6682 14.8693 10.7752Z" fill="black"/>
<path d="M4.74313 0C3.73064 0 2.32901 0.508314 1.40153 2.93002C0.831081 4.41939 0.628662 6.17435 0.628662 7.22461C0.628662 8.67056 1.36661 9.98402 2.60263 10.7382C2.94643 10.948 3.14613 11.3025 3.1368 11.6864L2.74019 27.9475C2.72691 28.4918 2.929 29.006 3.30928 29.3957C3.6895 29.7853 4.19872 29.9999 4.74313 29.9999C5.28753 29.9999 5.79682 29.7853 6.17703 29.3957C6.55731 29.0061 6.75941 28.4918 6.74613 27.9475L6.34945 11.6865C6.34012 11.3025 6.53982 10.948 6.88362 10.7382C8.11971 9.98402 8.85759 8.6705 8.85759 7.22461C8.85759 6.17435 8.65517 4.41945 8.08472 2.93002C7.15731 0.508314 5.75567 0 4.74313 0ZM6.37732 9.90847C5.74317 10.2954 5.36017 10.9857 5.37779 11.7101L5.7744 27.9711C5.78127 28.2514 5.67721 28.5162 5.4814 28.7168C5.28559 28.9175 5.02336 29.0279 4.74306 29.0279C4.46276 29.0279 4.20054 28.9175 4.00473 28.7169C3.80892 28.5163 3.70486 28.2514 3.71172 27.9711L4.10833 11.7101C4.12602 10.9858 3.74302 10.2954 3.10881 9.90847C2.16436 9.33225 1.60052 8.3289 1.60052 7.22461C1.60052 5.18455 2.36866 0.97192 4.74306 0.97192C7.11747 0.97192 7.88561 5.18455 7.88561 7.22461C7.88567 8.3289 7.32189 9.33225 6.37732 9.90847Z" fill="black"/>
</svg>
